name D:\school\WTK\thesis\model\3dpredictsim\Results\MidTarsalJoint\Fal_s1_bCst_PF_Natali2010_ls148_MT_nl_fitted_Tmtp_ig24.mot
datacolumns 128
datarows 4
range 0.00000000 0.03338676
endheader
time	pelvis_tilt	pelvis_list	pelvis_rotation	pelvis_tx	pelvis_ty	pelvis_tz	hip_flexion_l	hip_adduction_l	hip_rotation_l	hip_flexion_r	hip_adduction_r	hip_rotation_r	knee_angle_l	knee_angle_r	ankle_angle_l	ankle_angle_r	subtalar_angle_l	subtalar_angle_r	tmt_angle_l	tmt_angle_r	mtp_angle_l	mtp_angle_r	lumbar_extension	lumbar_bending	lumbar_rotation	arm_flex_l	arm_add_l	arm_rot_l	arm_flex_r	arm_add_r	arm_rot_r	elbow_flex_l	elbow_flex_r	pro_sup_l	pro_sup_r	glut_med1_l/activation	glut_med2_l/activation	glut_med3_l/activation	glut_min1_l/activation	glut_min2_l/activation	glut_min3_l/activation	semimem_l/activation	semiten_l/activation	bifemlh_l/activation	bifemsh_l/activation	sar_l/activation	add_long_l/activation	add_brev_l/activation	add_mag1_l/activation	add_mag2_l/activation	add_mag3_l/activation	tfl_l/activation	pect_l/activation	grac_l/activation	glut_max1_l/activation	glut_max2_l/activation	glut_max3_l/activation	iliacus_l/activation	psoas_l/activation	quad_fem_l/activation	gem_l/activation	peri_l/activation	rect_fem_l/activation	vas_med_l/activation	vas_int_l/activation	vas_lat_l/activation	med_gas_l/activation	lat_gas_l/activation	soleus_l/activation	tib_post_l/activation	flex_dig_l/activation	flex_hal_l/activation	tib_ant_l/activation	per_brev_l/activation	per_long_l/activation	per_tert_l/activation	ext_dig_l/activation	ext_hal_l/activation	ercspn_l/activation	intobl_l/activation	extobl_l/activation	glut_med1_r/activation	glut_med2_r/activation	glut_med3_r/activation	glut_min1_r/activation	glut_min2_r/activation	glut_min3_r/activation	semimem_r/activation	semiten_r/activation	bifemlh_r/activation	bifemsh_r/activation	sar_r/activation	add_long_r/activation	add_brev_r/activation	add_mag1_r/activation	add_mag2_r/activation	add_mag3_r/activation	tfl_r/activation	pect_r/activation	grac_r/activation	glut_max1_r/activation	glut_max2_r/activation	glut_max3_r/activation	iliacus_r/activation	psoas_r/activation	quad_fem_r/activation	gem_r/activation	peri_r/activation	rect_fem_r/activation	vas_med_r/activation	vas_int_r/activation	vas_lat_r/activation	med_gas_r/activation	lat_gas_r/activation	soleus_r/activation	tib_post_r/activation	flex_dig_r/activation	flex_hal_r/activation	tib_ant_r/activation	per_brev_r/activation	per_long_r/activation	per_tert_r/activation	ext_dig_r/activation	ext_hal_r/activation	ercspn_r/activation	intobl_r/activation	extobl_r/activation	
          0.00000000	         -2.93017611	         -1.79134540	          4.75670434	          0.00000000	          0.91935876	         -0.00294530	        -16.50027950	          0.14108257	          6.40824293	         29.37484915	          3.30652122	         -2.30697299	         -6.24874373	        -10.55208230	         -1.78089851	          5.74490610	          4.03510850	         -6.57187218	          4.72963604	         -3.85869455	         20.39674336	         25.63398449	         -1.80987793	         -0.01850899	         -1.80945956	          4.66476705	        -13.44974452	         14.85739211	         -4.87168105	        -13.45873689	          6.43514974	         32.10232342	         17.45376788	         86.51662706	         86.51662706	          0.36472293	          0.11093114	          0.07697054	          0.34198045	          0.21277131	          0.11707003	          0.05000061	          0.05000017	          0.05000014	          0.05960424	          0.11533418	          0.05000006	          0.05000007	          0.05000013	          0.05000042	          0.05000027	          0.32771727	          0.05000031	          0.05000036	          0.05047307	          0.05000750	          0.05000110	          0.42327676	          0.64867206	          0.05000045	          0.05000545	          0.07026733	          0.22232396	          0.05000162	          0.05000094	          0.05000082	          0.29401472	          0.41128936	          0.34239175	          0.31475851	          0.31280603	          0.38436418	          0.05000004	          0.05000121	          0.09642297	          0.05000020	          0.05000005	          0.05000021	          0.05000000	          0.05000001	          0.05000001	          0.05000019	          0.05000017	          0.05927403	          0.05000008	          0.05000011	          0.05000066	          0.20806611	          0.06494060	          0.08167832	          0.05450979	          0.05000082	          0.08782332	          0.18205532	          0.19736473	          0.15216556	          0.09868915	          0.05927431	          0.05000519	          0.11110109	          0.05927428	          0.05927441	          0.09904225	          0.05000010	          0.05000018	          0.20354390	          0.05000149	          0.05000027	          0.05000013	          0.06951749	          0.06973373	          0.05728452	          0.05927410	          0.05927410	          0.05927409	          0.05585488	          0.05000239	          0.05350084	          0.47552300	          0.29125293	          0.20291734	          0.10507483	          0.45859591	          0.08585037	          0.05927420	          0.13215890	          0.11706986	
          0.01112892	         -2.92807508	         -1.89998290	          5.04596155	          0.01647695	          0.91848309	         -0.00274569	        -16.46837538	         -0.15981328	          6.19578087	         28.83974246	          3.67292502	         -2.11979319	         -8.00008472	        -10.65746211	         -2.24262287	          5.12930978	          4.89699506	         -6.80218948	          4.25260318	         -3.95809405	         21.82250987	         25.55618757	         -1.62604786	          0.18350385	         -1.87536890	          4.47735978	        -13.45306701	         15.24301103	         -5.68728952	        -13.45406277	          6.21617694	         33.17856272	         17.03106148	         86.51662706	         86.51662706	          0.30765842	          0.09357474	          0.06492765	          0.28847390	          0.17948090	          0.09875314	          0.05000233	          0.05000037	          0.05000030	          0.05027857	          0.09728900	          0.08337716	          0.07871921	          0.05000403	          0.05000464	          0.05000908	          0.27644235	          0.05655919	          0.05000130	          0.05000126	          0.05000085	          0.05000099	          0.35705040	          0.54718033	          0.05000013	          0.05000070	          0.05927336	          0.18753892	          0.05000173	          0.11041885	          0.12570247	          0.24801282	          0.34693858	          0.31664211	          0.29866679	          0.26387149	          0.34184900	          0.05000004	          0.05000078	          0.08884219	          0.05000022	          0.05000006	          0.05000024	          0.05000002	          0.07309244	          0.05006182	          0.05912206	          0.05000153	          0.05000008	          0.05927461	          0.05927415	          0.05000053	          0.17551187	          0.05477996	          0.06889885	          0.05000022	          0.05000057	          0.11707308	          0.23701033	          0.21701271	          0.16321379	          0.08847933	          0.05000029	          0.07124533	          0.09371840	          0.05000037	          0.05000032	          0.09995298	          0.07026806	          0.06645273	          0.52650513	          0.18006893	          0.12464874	          0.08330365	          0.19683380	          0.19528551	          0.16833203	          0.05000001	          0.05000003	          0.05000000	          0.05000006	          0.05000064	          0.05000030	          0.55108697	          0.24568366	          0.18575783	          0.25667476	          0.49604274	          0.10185635	          0.05000009	          0.11148116	          0.09875297	
          0.02225784	         -2.92211966	         -2.01146365	          5.31031122	          0.03329699	          0.91766666	         -0.00255596	        -16.38888079	         -0.46622335	          5.97315281	         28.18652959	          3.97547059	         -1.87481171	         -9.83157929	        -11.14596928	         -2.79548441	          4.57576602	          5.74436686	         -7.04121102	          3.58689082	         -4.18565796	         23.37719668	         25.55538553	         -1.41745828	          0.39712514	         -1.93115309	          4.21193713	        -13.45342217	         15.56372735	         -6.54141994	        -13.45409506	          6.04317259	         34.23244845	         16.66131331	         86.51662706	         86.51662706	          0.36273361	          0.07893394	          0.05476903	          0.24333909	          0.15139915	          0.08330214	          0.05000234	          0.05000111	          0.05000093	          0.05000013	          0.08206723	          0.11155343	          0.08331598	          0.05927456	          0.05927413	          0.05927453	          0.23319008	          0.06987569	          0.05000652	          0.05000671	          0.05000774	          0.05926713	          0.30118592	          0.53305852	          0.05000158	          0.05000097	          0.05000010	          0.15819638	          0.15894529	          0.09509168	          0.11069315	          0.20920843	          0.29265616	          0.26709992	          0.25193745	          0.22258609	          0.28836316	          0.05000001	          0.05000020	          0.11842310	          0.05000007	          0.05000001	          0.05000010	          0.05000017	          0.06165632	          0.05927423	          0.21106665	          0.05000007	          0.15882053	          0.05000048	          0.05000015	          0.05000025	          0.16000104	          0.05000025	          0.07237432	          0.05000008	          0.05000139	          0.09875575	          0.19992750	          0.18305882	          0.13767739	          0.08973295	          0.05000066	          0.06010002	          0.07905551	          0.05000061	          0.06099688	          0.08431435	          0.05927411	          0.05605681	          0.44412751	          0.15189518	          0.10514623	          0.07026987	          0.16603698	          0.16473093	          0.14199462	          0.05927320	          0.06634839	          0.05876741	          0.05052235	          0.05000089	          0.05000141	          0.48618495	          0.27933742	          0.18065985	          0.21651515	          0.55787540	          0.08591980	          0.05000000	          0.11484082	          0.08330197	
          0.03338676	         -2.91377377	         -2.12274956	          5.54349375	          0.05033008	          0.91693254	         -0.00236162	        -16.25434826	         -0.77270919	          5.75074618	         27.40740100	          4.22107667	         -1.62306299	        -11.73301194	        -11.58866566	         -3.44287059	          3.97438300	          6.55832395	         -7.29201208	          2.70800661	         -4.27794512	         25.07090895	         25.69231983	         -1.19750217	          0.61809268	         -1.97781652	          3.88614474	        -13.45425958	         15.82935065	         -7.40205943	        -13.45747040	          5.92420773	         35.25635849	         16.32778322	         86.51662706	         86.51662706	          0.32687781	          0.06658387	          0.05000005	          0.40956041	          0.12771112	          0.07026863	          0.05000151	          0.05000014	          0.05000010	          0.05000034	          0.06922888	          0.09798978	          0.07028037	          0.05000061	          0.05000087	          0.05000066	          0.22845258	          0.05895353	          0.05000046	          0.05000091	          0.05000051	          0.05000034	          0.25406211	          0.50546416	          0.05000006	          0.05000040	          0.05000031	          0.13878424	          0.13407809	          0.08021391	          0.13878341	          0.17647542	          0.24686682	          0.22530914	          0.21251906	          0.18776009	          0.24324558	          0.05000008	          0.08281536	          0.11857048	          0.05000046	          0.05569394	          0.05000031	          0.05694293	          0.05200950	          0.05000012	          0.26938612	          0.23676706	          0.29244313	          0.20622803	          0.19264093	          0.18228782	          0.13496709	          0.06243990	          0.06105058	          0.08330399	          0.05226088	          0.08330433	          0.16864664	          0.15441735	          0.11613649	          0.10408368	          0.05000070	          0.05069717	          0.08190104	          0.16660228	          0.12460523	          0.07112315	          0.05000023	          0.05000017	          0.37463881	          0.12812961	          0.16445228	          0.05927537	          0.14005871	          0.13895703	          0.11977804	          0.05000042	          0.05642089	          0.05000002	          0.05000005	          0.05000037	          0.05000039	          0.58623219	          0.34300095	          0.20162911	          0.44771080	          0.51960589	          0.23125498	          0.06949601	          0.11308254	          0.07026844	
